<svg id="visual" viewBox="0 0 900 600" width="900" height="600" xmlns="http://www.w3.org/2000/svg" xmlns:xlink="http://www.w3.org/1999/xlink" version="1.1"><path d="M0 423L21.5 431.7C43 440.3 86 457.7 128.8 467C171.7 476.3 214.3 477.7 257.2 477C300 476.3 343 473.7 385.8 463.8C428.7 454 471.3 437 514.2 440.3C557 443.7 600 467.3 642.8 472.7C685.7 478 728.3 465 771.2 453.5C814 442 857 432 878.5 427L900 422L900 601L878.5 601C857 601 814 601 771.2 601C728.3 601 685.7 601 642.8 601C600 601 557 601 514.2 601C471.3 601 428.7 601 385.8 601C343 601 300 601 257.2 601C214.3 601 171.7 601 128.8 601C86 601 43 601 21.5 601L0 601Z" fill="#257575"></path><path d="M0 473L21.5 481.2C43 489.3 86 505.7 128.8 503.5C171.7 501.3 214.3 480.7 257.2 471.7C300 462.7 343 465.3 385.8 474.7C428.7 484 471.3 500 514.2 506.2C557 512.3 600 508.7 642.8 509.5C685.7 510.3 728.3 515.7 771.2 515C814 514.3 857 507.7 878.5 504.3L900 501L900 601L878.5 601C857 601 814 601 771.2 601C728.3 601 685.7 601 642.8 601C600 601 557 601 514.2 601C471.3 601 428.7 601 385.8 601C343 601 300 601 257.2 601C214.3 601 171.7 601 128.8 601C86 601 43 601 21.5 601L0 601Z" fill="#258983"></path><path d="M0 536L21.5 538C43 540 86 544 128.8 545.5C171.7 547 214.3 546 257.2 546.7C300 547.3 343 549.7 385.8 543.7C428.7 537.7 471.3 523.3 514.2 524.5C557 525.7 600 542.3 642.8 546.8C685.7 551.3 728.3 543.7 771.2 540C814 536.3 857 536.7 878.5 536.8L900 537L900 601L878.5 601C857 601 814 601 771.2 601C728.3 601 685.7 601 642.8 601C600 601 557 601 514.2 601C471.3 601 428.7 601 385.8 601C343 601 300 601 257.2 601C214.3 601 171.7 601 128.8 601C86 601 43 601 21.5 601L0 601Z" fill="#2a9d8f"></path></svg>