<svg id="visual" viewBox="0 0 900 600" width="900" height="600" xmlns="http://www.w3.org/2000/svg" xmlns:xlink="http://www.w3.org/1999/xlink" version="1.1"><path d="M0 184L21.5 172.7C43 161.3 86 138.7 128.8 138C171.7 137.3 214.3 158.7 257.2 171.3C300 184 343 188 385.8 188.3C428.7 188.7 471.3 185.3 514.2 171C557 156.7 600 131.3 642.8 131.3C685.7 131.3 728.3 156.7 771.2 163.7C814 170.7 857 159.3 878.5 153.7L900 148L900 0L878.5 0C857 0 814 0 771.2 0C728.3 0 685.7 0 642.8 0C600 0 557 0 514.2 0C471.3 0 428.7 0 385.8 0C343 0 300 0 257.2 0C214.3 0 171.7 0 128.8 0C86 0 43 0 21.5 0L0 0Z" fill="#257575"></path><path d="M0 78L21.5 78.2C43 78.3 86 78.7 128.8 82C171.7 85.3 214.3 91.7 257.2 90.2C300 88.7 343 79.3 385.8 84.2C428.7 89 471.3 108 514.2 112.8C557 117.7 600 108.3 642.8 100C685.7 91.7 728.3 84.3 771.2 81.2C814 78 857 79 878.5 79.5L900 80L900 0L878.5 0C857 0 814 0 771.2 0C728.3 0 685.7 0 642.8 0C600 0 557 0 514.2 0C471.3 0 428.7 0 385.8 0C343 0 300 0 257.2 0C214.3 0 171.7 0 128.8 0C86 0 43 0 21.5 0L0 0Z" fill="#258983"></path><path d="M0 79L21.5 71.5C43 64 86 49 128.8 45.7C171.7 42.3 214.3 50.7 257.2 50.5C300 50.3 343 41.7 385.8 39C428.7 36.3 471.3 39.7 514.2 44.2C557 48.7 600 54.3 642.8 54.7C685.7 55 728.3 50 771.2 49.7C814 49.3 857 53.7 878.5 55.8L900 58L900 0L878.5 0C857 0 814 0 771.2 0C728.3 0 685.7 0 642.8 0C600 0 557 0 514.2 0C471.3 0 428.7 0 385.8 0C343 0 300 0 257.2 0C214.3 0 171.7 0 128.8 0C86 0 43 0 21.5 0L0 0Z" fill="#2a9d8f"></path></svg>