<svg id="visual" viewBox="0 0 900 600" width="900" height="600" xmlns="http://www.w3.org/2000/svg" xmlns:xlink="http://www.w3.org/1999/xlink" version="1.1"><path d="M0 472L18.8 461.8C37.7 451.7 75.3 431.3 112.8 432.8C150.3 434.3 187.7 457.7 225.2 457.5C262.7 457.3 300.3 433.7 337.8 435.7C375.3 437.7 412.7 465.3 450.2 467.5C487.7 469.7 525.3 446.3 562.8 437.7C600.3 429 637.7 435 675.2 444C712.7 453 750.3 465 787.8 455C825.3 445 862.7 413 881.3 397L900 381L900 601L881.3 601C862.7 601 825.3 601 787.8 601C750.3 601 712.7 601 675.2 601C637.7 601 600.3 601 562.8 601C525.3 601 487.7 601 450.2 601C412.7 601 375.3 601 337.8 601C300.3 601 262.7 601 225.2 601C187.7 601 150.3 601 112.8 601C75.3 601 37.7 601 18.8 601L0 601Z" fill="#2a9d8f"></path><path d="M0 478L18.8 472C37.7 466 75.3 454 112.8 451.5C150.3 449 187.7 456 225.2 466C262.7 476 300.3 489 337.8 502.8C375.3 516.7 412.7 531.3 450.2 540.5C487.7 549.7 525.3 553.3 562.8 540.2C600.3 527 637.7 497 675.2 492C712.7 487 750.3 507 787.8 512.5C825.3 518 862.7 509 881.3 504.5L900 500L900 601L881.3 601C862.7 601 825.3 601 787.8 601C750.3 601 712.7 601 675.2 601C637.7 601 600.3 601 562.8 601C525.3 601 487.7 601 450.2 601C412.7 601 375.3 601 337.8 601C300.3 601 262.7 601 225.2 601C187.7 601 150.3 601 112.8 601C75.3 601 37.7 601 18.8 601L0 601Z" fill="#264653"></path></svg>