<svg id="visual" viewBox="0 0 900 600" width="900" height="600" xmlns="http://www.w3.org/2000/svg" xmlns:xlink="http://www.w3.org/1999/xlink" version="1.1"><path d="M0 90L21.5 99.8C43 109.7 86 129.3 128.8 130.2C171.7 131 214.3 113 257.2 113.2C300 113.3 343 131.7 385.8 134C428.7 136.3 471.3 122.7 514.2 112.3C557 102 600 95 642.8 91.2C685.7 87.3 728.3 86.7 771.2 86.8C814 87 857 88 878.5 88.5L900 89L900 0L878.5 0C857 0 814 0 771.2 0C728.3 0 685.7 0 642.8 0C600 0 557 0 514.2 0C471.3 0 428.7 0 385.8 0C343 0 300 0 257.2 0C214.3 0 171.7 0 128.8 0C86 0 43 0 21.5 0L0 0Z" fill="#286065"></path><path d="M0 51L21.5 58C43 65 86 79 128.8 83.2C171.7 87.3 214.3 81.7 257.2 76.7C300 71.7 343 67.3 385.8 60.7C428.7 54 471.3 45 514.2 39.3C557 33.7 600 31.3 642.8 32.2C685.7 33 728.3 37 771.2 36.7C814 36.3 857 31.7 878.5 29.3L900 27L900 0L878.5 0C857 0 814 0 771.2 0C728.3 0 685.7 0 642.8 0C600 0 557 0 514.2 0C471.3 0 428.7 0 385.8 0C343 0 300 0 257.2 0C214.3 0 171.7 0 128.8 0C86 0 43 0 21.5 0L0 0Z" fill="#264653"></path></svg>