<svg id="visual" viewBox="0 0 900 600" width="900" height="600" xmlns="http://www.w3.org/2000/svg" xmlns:xlink="http://www.w3.org/1999/xlink" version="1.1"><path d="M0 242L18.8 239.3C37.7 236.7 75.3 231.3 112.8 216.3C150.3 201.3 187.7 176.7 225.2 167.3C262.7 158 300.3 164 337.8 165.8C375.3 167.7 412.7 165.3 450.2 151C487.7 136.7 525.3 110.3 562.8 112C600.3 113.7 637.7 143.3 675.2 154C712.7 164.7 750.3 156.3 787.8 146.7C825.3 137 862.7 126 881.3 120.5L900 115L900 0L881.3 0C862.7 0 825.3 0 787.8 0C750.3 0 712.7 0 675.2 0C637.7 0 600.3 0 562.8 0C525.3 0 487.7 0 450.2 0C412.7 0 375.3 0 337.8 0C300.3 0 262.7 0 225.2 0C187.7 0 150.3 0 112.8 0C75.3 0 37.7 0 18.8 0L0 0Z" fill="#286065"></path><path d="M0 122L18.8 113C37.7 104 75.3 86 112.8 76C150.3 66 187.7 64 225.2 72.5C262.7 81 300.3 100 337.8 107.2C375.3 114.3 412.7 109.7 450.2 99.2C487.7 88.7 525.3 72.3 562.8 72.8C600.3 73.3 637.7 90.7 675.2 94.8C712.7 99 750.3 90 787.8 87.5C825.3 85 862.7 89 881.3 91L900 93L900 0L881.3 0C862.7 0 825.3 0 787.8 0C750.3 0 712.7 0 675.2 0C637.7 0 600.3 0 562.8 0C525.3 0 487.7 0 450.2 0C412.7 0 375.3 0 337.8 0C300.3 0 262.7 0 225.2 0C187.7 0 150.3 0 112.8 0C75.3 0 37.7 0 18.8 0L0 0Z" fill="#264653"></path></svg>