<svg id="visual" viewBox="0 0 900 600" width="900" height="600" xmlns="http://www.w3.org/2000/svg" xmlns:xlink="http://www.w3.org/1999/xlink" version="1.1"><path d="M0 522L21.5 519.2C43 516.3 86 510.7 128.8 506.8C171.7 503 214.3 501 257.2 502.3C300 503.7 343 508.3 385.8 511.7C428.7 515 471.3 517 514.2 505.7C557 494.3 600 469.7 642.8 458.7C685.7 447.7 728.3 450.3 771.2 460.7C814 471 857 489 878.5 498L900 507L900 601L878.5 601C857 601 814 601 771.2 601C728.3 601 685.7 601 642.8 601C600 601 557 601 514.2 601C471.3 601 428.7 601 385.8 601C343 601 300 601 257.2 601C214.3 601 171.7 601 128.8 601C86 601 43 601 21.5 601L0 601Z" fill="#2a9d8f"></path><path d="M0 561L21.5 562.8C43 564.7 86 568.3 128.8 565.2C171.7 562 214.3 552 257.2 542.8C300 533.7 343 525.3 385.8 525.2C428.7 525 471.3 533 514.2 539.7C557 546.3 600 551.7 642.8 554.5C685.7 557.3 728.3 557.7 771.2 559.2C814 560.7 857 563.3 878.5 564.7L900 566L900 601L878.5 601C857 601 814 601 771.2 601C728.3 601 685.7 601 642.8 601C600 601 557 601 514.2 601C471.3 601 428.7 601 385.8 601C343 601 300 601 257.2 601C214.3 601 171.7 601 128.8 601C86 601 43 601 21.5 601L0 601Z" fill="#264653"></path></svg>