<svg id="visual" viewBox="0 0 900 600" width="900" height="600" xmlns="http://www.w3.org/2000/svg" xmlns:xlink="http://www.w3.org/1999/xlink" version="1.1"><rect x="0" y="0" width="900" height="600" fill="#286065"></rect><defs><linearGradient id="grad1_0" x1="33.3%" y1="0%" x2="100%" y2="100%"><stop offset="20%" stop-color="#286065" stop-opacity="1"></stop><stop offset="80%" stop-color="#286065" stop-opacity="1"></stop></linearGradient></defs><defs><linearGradient id="grad2_0" x1="0%" y1="0%" x2="66.7%" y2="100%"><stop offset="20%" stop-color="#286065" stop-opacity="1"></stop><stop offset="80%" stop-color="#286065" stop-opacity="1"></stop></linearGradient></defs><g transform="translate(900, 0)"><path d="M0 486.7C-60.6 463.6 -121.3 440.5 -169.5 409.3C-217.8 378.1 -253.6 338.8 -303.3 303.3C-353.1 267.9 -416.8 236.2 -449.7 186.3C-482.6 136.3 -484.7 68.2 -486.7 0L0 0Z" fill="#257575"></path></g><g transform="translate(0, 600)"><path d="M0 -486.7C70.5 -486.5 141.1 -486.2 186.3 -449.7C231.5 -413.2 251.3 -340.4 293.4 -293.4C335.6 -246.5 400.1 -225.2 436.1 -180.6C472 -136 479.4 -68 486.7 0L0 0Z" fill="#257575"></path></g></svg>